<svg
					xmlns="http://www.w3.org/2000/svg"
					viewBox="0 0 400 400"
					fill="none"
					preserveAspectRatio="xMidYMid meet"
				>
					<style xmlns="">
						@keyframes fadeIn {
							from {
								opacity: 0;
							}
							to {
								opacity: 1;
							}
						}

						#element-6 {
							animation: fade-in 1s ease 0s 1 normal forwards;
						}

						@keyframes fadeIn {
							from {
								opacity: 0;
							}
							to {
								opacity: 1;
							}
						}

						#element-5 {
							animation: fade-in 1s ease 0.2s 1 normal forwards;
						}

						@keyframes fadeIn {
							from {
								opacity: 0;
							}
							to {
								opacity: 1;
							}
						}

						#element-4 {
							animation: fade-in 1s ease 0.4s 1 normal forwards;
						}

						@keyframes fadeIn {
							from {
								opacity: 0;
							}
							to {
								opacity: 1;
							}
						}

						#element-3 {
							animation: fade-in 1s ease 0.6s 1 normal forwards;
						}

						@keyframes fadeIn {
							from {
								opacity: 0;
							}
							to {
								opacity: 1;
							}
						}

						#element-2 {
							animation: fade-in 1s ease 0.8s 1 normal forwards;
						}

						@keyframes fadeIn {
							from {
								opacity: 0;
							}
							to {
								opacity: 1;
							}
						}

						#element-1 {
							animation: fade-in 1s ease 1s 1 normal forwards;
						}

						@keyframes float {
							0%,
							100% {
								transform: translateY(0px);
							}
							50% {
								transform: translateY(-10px);
							}
						}

						#element-1 {
							animation: float 3s ease-in-out 0.8s infinite
								alternate forwards;
						}

						@keyframes float {
							0%,
							100% {
								transform: translateY(0px);
							}
							50% {
								transform: translateY(-10px);
							}
						}

						#element-2 {
							animation: float 2.9s ease-in-out 0.7s infinite
								alternate forwards;
						}

						@keyframes float {
							0%,
							100% {
								transform: translateY(0px);
							}
							50% {
								transform: translateY(-10px);
							}
						}

						#element-3 {
							animation: float 2.7s ease-in-out 1s infinite
								alternate forwards;
						}

						@keyframes float {
							0%,
							100% {
								transform: translateY(0px);
							}
							50% {
								transform: translateY(-10px);
							}
						}

						#element-4 {
							animation: float 2.5s ease-in-out 0.8s infinite
								alternate forwards;
						}

						@keyframes float {
							0%,
							100% {
								transform: translateY(0px);
							}
							50% {
								transform: translateY(-10px);
							}
						}

						#element-5 {
							animation: float 2.7s ease-in-out 0.7s infinite
								alternate forwards;
						}

						@keyframes float {
							0%,
							100% {
								transform: translateY(0px);
							}
							50% {
								transform: translateY(-10px);
							}
						}

						#element-6 {
							animation: float 2.8s ease-in-out 0.4s infinite
								alternate forwards;
						}
					</style>
					<path
						d="M215.695 364.397C216.817 359.051 217.991 353.867 219.217 348.847C220.514 343.782 222.18 339.075 224.216 334.725C226.308 330.388 228.583 326.696 231.039 323.649C233.508 320.545 236.463 318.337 239.902 317.026C243.412 315.671 247.233 315.443 251.365 316.343C255.039 317.136 258.132 318.487 260.642 320.397C263.166 322.249 265.071 324.561 266.357 327.331C267.656 330.044 268.556 333.177 269.057 336.73C269.558 340.283 269.601 344.121 269.186 348.245C268.827 352.382 268.196 356.787 267.291 361.461C266.444 366.147 265.315 371.009 263.903 376.047C263.341 378.208 262.166 379.894 260.377 381.106C258.601 382.261 256.673 382.778 254.591 382.656C252.496 382.591 250.487 382.155 248.565 381.347C246.642 380.538 245.167 379.231 244.14 377.425C243.113 375.619 242.851 373.629 243.356 371.455L236.083 369.675C235.331 372.395 233.73 374.223 231.282 375.162C228.82 376.157 226.344 376.306 223.853 375.607C221.407 374.978 219.305 373.646 217.547 371.61C215.745 369.503 215.128 367.099 215.695 364.397ZM241.009 351.196L247.166 352.716C248.183 347.044 248.025 343.179 246.695 341.122C244.584 342.681 242.689 346.039 241.009 351.196Z"
						fill="#212220"
						id="element-1"
					/>
					<path
						d="M142.282 262.216C136.119 265.276 134.019 268.424 135.981 271.661C136.67 272.024 137.126 272.411 137.35 272.822C137.634 273.119 138.241 273.219 139.172 273.123C140.049 272.852 140.751 272.635 141.277 272.472C141.688 272.248 142.48 271.859 143.654 271.304C144.773 270.573 145.656 270.011 146.303 269.619C147.011 269.112 148.012 268.465 149.307 267.68C150.547 266.72 151.578 266.017 152.401 265.57C164.063 257.925 174.641 253.45 184.134 252.145C193.398 250.719 202.81 253.187 212.369 259.549C220.044 264.476 225.332 271.007 228.234 279.141C231.197 287.16 231.713 295.504 229.784 304.172C228.097 312.382 224.554 320.493 219.154 328.505C213.931 336.464 207.695 342.862 200.448 347.699C191.375 353.774 182.94 354.463 175.144 349.766C169.017 345.801 165.536 340.296 164.701 333.252C163.728 324.521 167.297 317.891 175.408 313.363L176.025 313.028C184.825 308.863 188.112 304.579 185.884 300.176C184.64 298.639 183.05 298.314 181.114 299.201C179.24 299.974 176.003 301.936 171.406 305.089C161.128 313.171 151.556 318.103 142.691 319.886C134.238 321.445 124.726 319.585 114.156 314.304C105.024 309.636 98.7228 302.938 95.2531 294.211C91.7291 285.309 90.9046 276.435 92.7796 267.592C94.5398 258.687 98.2646 250.232 103.954 242.225C109.643 234.219 116.504 228.444 124.536 224.901C129.344 222.74 133.942 222.23 138.331 223.37C142.665 224.335 146.016 226.468 148.383 229.771C150.636 233.014 152.269 236.736 153.281 240.939C154.179 245.081 153.598 249.104 151.54 253.009C149.542 256.798 146.456 259.867 142.282 262.216Z"
						fill="#212220"
						id="element-2"
					/>
					<path
						d="M252.431 157.812C263.288 165.252 273.537 173.086 283.179 181.313C286.696 184.247 288.485 187.758 288.545 191.848C288.683 195.997 287.599 199.58 285.293 202.597C283.183 205.518 280.117 207.525 276.096 208.618C272.211 209.692 268.323 208.927 264.433 206.321C261.512 204.211 255.981 199.983 247.841 193.639L245.092 197.236C245.401 197.472 246.213 198.093 247.528 199.098C248.98 200.085 249.937 200.756 250.402 201.111C253.341 203.357 255.166 206.1 255.876 209.339C256.723 212.56 256.462 215.546 255.094 218.299C253.862 221.033 252.136 223.452 249.916 225.554C247.756 227.579 245.02 228.674 241.708 228.838C238.532 228.985 235.514 227.964 232.651 225.777L226.85 221.343L223.391 225.868C230.494 230.684 236.2 234.922 240.509 238.583C244.085 241.44 245.892 245.088 245.93 249.528C245.949 253.831 244.767 257.462 242.384 260.42C239.901 263.669 236.601 265.742 232.484 266.639C228.444 267.595 224.634 266.889 221.053 264.519C209.323 256.779 198.705 248.786 189.2 240.541C186.129 237.825 184.308 234.596 183.738 230.852C183.228 227.031 184.137 223.436 186.465 220.069C202.51 196.673 217.666 176.764 231.933 160.342C234.571 157.211 237.771 155.429 241.533 154.996C245.432 154.545 249.064 155.484 252.431 157.812Z"
						fill="#212220"
						id="element-3"
					/>
					<path
						d="M267.404 20.4502C307.16 43.8137 338.331 62.9967 360.916 77.9991C366.76 81.7009 369.905 87.2222 370.35 94.5631C370.869 101.781 368.895 108.249 364.427 113.967C360.206 119.834 354.487 123.027 347.27 123.546C342.722 123.827 334.06 123.81 321.285 123.495C309.474 123.258 301.787 123.578 298.226 124.455C300.222 126.167 304.638 128.332 311.474 130.95C318.187 133.493 323.023 135.659 325.983 137.449C331.901 141.027 335.184 146.042 335.829 152.494C336.426 158.748 335.121 164.527 331.915 169.829C328.859 174.884 324.311 178.786 318.272 181.533C312.259 183.959 306.379 183.519 300.632 180.213C268.865 162.016 237.263 142.573 205.825 121.881C199.611 117.956 196.431 112.076 196.284 104.242C196.063 96.531 198.347 89.8295 203.136 84.1373C207.876 78.2472 213.556 75.5358 220.177 76.003C245.38 76.9285 261.196 76.809 267.625 75.6446C265.704 73.8095 261.263 71.5457 254.304 68.8532C247.467 66.2354 242.878 64.2182 240.535 62.8017C235.973 60.0432 233.045 56.2524 231.751 51.4292C230.335 46.5315 230.585 41.8001 232.504 37.2349C234.299 32.5951 236.895 28.44 240.293 24.7695C243.568 21.0243 247.764 18.6786 252.883 17.7321C257.878 16.7111 262.718 17.6171 267.404 20.4502Z"
						fill="#212220"
						id="element-4"
					/>
					<path
						d="M166.239 89.2314L166.097 89.2846C161.64 90.9536 157.196 90.7798 152.765 88.7632C148.333 86.7466 145.265 83.4625 143.561 78.911C141.892 74.4544 142.083 70.0578 144.136 65.7213C146.152 61.2899 149.389 58.2397 153.846 56.5707L153.988 56.5175C158.444 54.8485 162.888 55.0223 167.32 57.0389C171.716 58.9607 174.748 62.1499 176.417 66.6066C178.122 71.1581 177.965 75.6495 175.949 80.0809C173.932 84.5122 170.696 87.5624 166.239 89.2314ZM189.485 101.934C196.055 118.611 202.423 136.337 208.589 155.111C210.127 159.509 209.557 163.615 206.877 167.43C204.197 171.244 200.818 173.915 196.74 175.442C192.663 176.969 188.438 177.092 184.066 175.81C179.622 174.339 176.584 171.422 174.95 167.06C167.919 149.15 161.569 131.472 155.9 114.025C154.776 110.445 154.908 107.044 156.296 103.821C157.743 100.468 159.972 97.9034 162.983 96.1271C165.994 94.3508 169.235 93.1909 172.708 92.6473C176.145 92.0089 179.416 92.514 182.52 94.1626C185.719 95.7758 188.041 98.3662 189.485 101.934Z"
						fill="#212220"
						id="element-5"
					/>
					<path
						d="M125.16 102.41C135.742 120.191 147.395 143.119 160.118 171.194C161.802 174.883 162.149 178.524 161.159 182.116C160.212 185.571 158.351 188.361 155.574 190.484C152.886 192.561 149.92 194.098 146.673 195.096C143.381 196.004 140.095 195.825 136.816 194.559C133.537 193.293 131.012 190.952 129.242 187.536C127.658 184.479 124.921 178.427 121.032 169.381L120.141 178.225C120.089 184.067 117.232 188.456 111.568 191.391C106.084 194.233 100.739 194.152 95.5327 191.147L87.5189 186.576C88.3108 188.104 89.9164 191.092 92.3355 195.541C94.8446 199.943 96.5184 202.953 97.3569 204.571C99.593 208.886 99.7667 213.073 97.8779 217.131C95.9426 221.099 93.042 224.084 89.1763 226.087C85.4903 227.997 81.3336 228.669 76.7062 228.101C72.1221 227.398 68.7136 225.001 66.4808 220.913C52.5478 196.885 40.7319 173.643 31.0332 151.184C28.9304 146.686 29.093 142.268 31.5212 137.931C33.9926 133.457 37.6156 130.325 42.3902 128.536C47.2547 126.699 51.7391 126.77 55.8435 128.749C67.784 133.966 77.9567 139.072 86.3616 144.068C87.4069 131.78 89.5609 119.431 92.8235 107.021C93.9097 103.835 95.9096 101.202 98.8232 99.122C101.69 96.9521 104.728 95.6628 107.938 95.2542C111.191 94.709 114.457 95.0695 117.736 96.3354C120.968 97.5115 123.443 99.5363 125.16 102.41Z"
						fill="#212220"
						id="element-6"
					/>
				</svg>
